<svg width="316" height="316" viewBox="0 0 316 316" fill="none" xmlns="http://www.w3.org/2000/svg">
<path d="M158 308C240.843 308 308 240.843 308 158C308 75.1573 240.843 8 158 8C75.1573 8 8 75.1573 8 158C8 240.843 75.1573 308 158 308Z" fill="#302E31" stroke="white" stroke-width="14.54"/>
<path d="M81.743 79.229C86.352 56.98 101.436 36.911 121.715 26.855C118.187 30.437 113.922 33.182 110.654 37.078C97.288 51.492 91.254 72.358 94.941 91.547C99.592 120.835 127.12 144.76 156.953 144.341C180.081 145.376 202.623 132.064 213.936 111.994C238.154 112.816 261.701 125.318 275.528 145.388C282.609 155.863 288.14 168.14 288.517 180.919C284.034 163.95 272.763 148.866 257.385 140.36C242.511 131.98 224.243 129.844 207.944 134.788C187.497 140.654 170.612 157.372 164.788 177.944C159.844 194.327 161.959 212.385 169.732 227.385C158.922 246.115 139.397 259.48 118.196 263.503C101.897 266.922 84.76 264.282 69.592 257.427C83.168 261.387 97.916 262.078 111.408 257.279C129.508 251.288 144.466 236.749 151.045 218.816C158.335 199.291 155.57 176.078 143.293 159.319C134.117 146.12 119.662 136.819 103.95 133.509C98.964 132.62 93.936 132.218 88.908 131.757C80.905 115.626 77.972 96.897 81.994 79.383L81.743 79.229V79.229Z" fill="#C4C2C4"/>
</svg>
